<svg width="18" height="18" viewBox="0 0 18 18" fill="none" xmlns="http://www.w3.org/2000/svg">
<path d="M15.224 15.2099C13.5415 13.6573 11.3435 12.7828 9.05419 12.7554C6.76489 12.7279 4.54655 13.5492 2.82719 15.061L2.04917 14.1783C3.98662 12.4741 6.48656 11.5479 9.06666 11.5783C11.6467 11.6088 14.1242 12.5937 16.0209 14.343L15.224 15.2099Z" fill="#303A35"/>
<path d="M8.94234 5.15059C9.51966 5.15059 10.084 5.32179 10.564 5.64253C11.0441 5.96327 11.4182 6.41916 11.6391 6.95253C11.8601 7.4859 11.9179 8.07281 11.8052 8.63904C11.6926 9.20527 11.4146 9.72537 11.0064 10.1336C10.5982 10.5418 10.078 10.8198 9.5118 10.9325C8.94558 11.0451 8.35869 10.9873 7.82531 10.7664C7.29194 10.5454 6.83603 10.1713 6.51529 9.69127C6.19455 9.21125 6.02338 8.64689 6.02338 8.06957C6.02431 7.2957 6.33212 6.55379 6.87934 6.00657C7.42655 5.45936 8.16846 5.15152 8.94234 5.15059ZM8.94234 3.97358C8.13223 3.97358 7.34031 4.2138 6.66673 4.66388C5.99315 5.11395 5.46816 5.75366 5.15815 6.5021C4.84813 7.25054 4.76702 8.07412 4.92506 8.86866C5.08311 9.66321 5.47321 10.393 6.04604 10.9659C6.61888 11.5387 7.34873 11.9288 8.14327 12.0869C8.93782 12.2449 9.76138 12.1638 10.5098 11.8538C11.2583 11.5438 11.898 11.0188 12.348 10.3452C12.7981 9.6716 13.0383 8.87968 13.0383 8.06957C13.0383 6.98325 12.6068 5.94142 11.8386 5.17327C11.0705 4.40512 10.0287 3.97358 8.94234 3.97358Z" fill="#303A35"/>
<path d="M9.00001 1.17701C10.5473 1.17701 12.0597 1.63582 13.3462 2.49542C14.6327 3.35502 15.6354 4.57681 16.2275 6.00627C16.8196 7.43573 16.9745 9.00868 16.6727 10.5262C16.3708 12.0437 15.6258 13.4376 14.5317 14.5317C13.4376 15.6258 12.0437 16.3708 10.5262 16.6727C9.00868 16.9745 7.43573 16.8196 6.00627 16.2275C4.5768 15.6354 3.35502 14.6327 2.49542 13.3462C1.63582 12.0597 1.177 10.5472 1.177 9C1.17933 6.92593 2.0043 4.93749 3.47089 3.4709C4.93748 2.00431 6.92594 1.17935 9.00001 1.17701ZM9.00001 0C7.21998 0 5.47992 0.527847 3.99987 1.51678C2.51983 2.50571 1.36627 3.91132 0.68508 5.55585C0.00389066 7.20038 -0.174327 9.00998 0.17294 10.7558C0.520207 12.5016 1.37737 14.1053 2.63605 15.364C3.89472 16.6226 5.49836 17.4798 7.24419 17.8271C8.99003 18.1743 10.7996 17.9961 12.4442 17.3149C14.0887 16.6337 15.4943 15.4802 16.4832 14.0001C17.4722 12.5201 18 10.78 18 9C18 6.61305 17.0518 4.32387 15.364 2.63604C13.6761 0.948212 11.387 0 9.00001 0Z" fill="#303A35"/>
</svg>
