<svg width="17" height="17" viewBox="0 0 17 17" fill="none" xmlns="http://www.w3.org/2000/svg">
<path d="M11.721 4.36485C11.721 3.58516 11.3922 2.83693 10.8057 2.27952L10.7776 2.25311L10.7775 2.25308C10.1735 1.69303 9.35429 1.37838 8.5 1.37838C7.64572 1.37838 6.82648 1.69303 6.22242 2.25311L6.22239 2.25308C5.61835 2.81316 5.27901 3.57279 5.27901 4.36485V4.5946H11.721V4.36485ZM11.721 8.95945V5.97298H5.27901V8.95945C5.27901 9.34008 4.94622 9.64864 4.5357 9.64864C4.12519 9.64864 3.7924 9.34008 3.7924 8.95945V5.97298H3.38634C2.7521 5.97298 2.22209 6.41669 2.15464 6.99842L2.15179 7.02623L1.49107 14.3776C1.43088 15.0472 2.00086 15.6216 2.72562 15.6216H14.2744C14.9935 15.6216 15.5602 15.0561 15.5102 14.3933L15.5089 14.3776L14.8482 7.02625L14.8453 6.99844C14.7779 6.41669 14.2479 5.97299 13.6136 5.97298H13.2076V8.95945C13.2076 9.34008 12.8748 9.64864 12.4643 9.64864C12.0538 9.64864 11.721 9.34008 11.721 8.95945ZM13.2076 4.5946H13.6136C15.0201 4.59461 16.1934 5.58636 16.3267 6.88112L16.3296 6.91176L16.9904 14.2631L16.9932 14.2976C17.1032 15.756 15.8564 17 14.2744 17H2.72562C1.13112 17 -0.122813 15.7363 0.00960277 14.2631L0.670329 6.91176L0.673261 6.88112C0.806485 5.58634 1.97994 4.5946 3.38634 4.5946H3.7924V4.36485C3.7924 3.20722 4.2884 2.09701 5.17123 1.27845L5.21283 1.24032C6.09149 0.445611 7.27094 0 8.5 0C9.74854 1.55965e-06 10.9459 0.459857 11.8287 1.27842L11.8698 1.317C12.727 2.13171 13.2076 3.22531 13.2076 4.36485V4.5946Z" fill="#303A35"/>
</svg>
