<svg width="12" height="12" viewBox="0 0 12 12" fill="none" xmlns="http://www.w3.org/2000/svg">
<path d="M11.25 0H0.75C0.335438 0 0 0.335438 0 0.75V11.25C0 11.6646 0.335438 12 0.75 12H11.25C11.6646 12 12 11.6646 12 11.25V0.75C12 0.335438 11.6646 0 11.25 0ZM1.5 1.5H10.5V7.629L8.79131 5.92031C8.49844 5.628 8.02369 5.628 7.73081 5.92031L3.15094 10.5H1.5V1.5Z" fill="#8B8B8B"/>
<path d="M4.5 6C5.32843 6 6 5.32843 6 4.5C6 3.67157 5.32843 3 4.5 3C3.67157 3 3 3.67157 3 4.5C3 5.32843 3.67157 6 4.5 6Z" fill="#8B8B8B"/>
</svg>
