<svg width="18" height="18" viewBox="0 0 18 18" fill="none" xmlns="http://www.w3.org/2000/svg">
<path fill-rule="evenodd" clip-rule="evenodd" d="M7.65 1.8C4.41913 1.8 1.8 4.41913 1.8 7.65C1.8 10.8808 4.41913 13.5 7.65 13.5C10.8808 13.5 13.5 10.8808 13.5 7.65C13.5 4.41913 10.8808 1.8 7.65 1.8ZM0 7.65C0 3.42502 3.42502 0 7.65 0C11.8749 0 15.3 3.42501 15.3 7.65C15.3 9.4413 14.6843 11.0888 13.653 12.3925L17.7354 16.4627C18.0874 16.8136 18.0883 17.3834 17.7374 17.7354C17.3864 18.0874 16.8166 18.0883 16.4646 17.7374L12.3788 13.6638C11.0773 14.6886 9.43504 15.3 7.65 15.3C3.42501 15.3 0 11.8749 0 7.65Z" fill="#9B938D"/>
</svg>
